# xmcd
#
# Track frame offsets: 
#        150
#        15330
#        29437
#        45200
#        59982
#        72327
#        85975
#        98185
#        112300
#        129940
#        142325
#        153930
#        166625
#        181992
#        198740
#        211052
#        221807
#        235867
#        251195
#        263230
#        284060
#        294052
#        309462
#        323750
#
# Disc length: 4564 seconds
#
# Revision: 1
# Processed by: cddbd v1.5.2PL0 Copyright (c) Steve Scherf et al.
# Submitted via: ExactAudioCopy v1.3
#
DISCID=6a11d218
DTITLE=All Star Jamboree feat. Al Cook - Twenty Five Blues Years
DYEAR=1900
DGENRE=Blues
TTITLE0=Georgia Blues
TTITLE1=Stone Heart Blues
TTITLE2=Country Girl Blues
TTITLE3=Workin´ Man Blues
TTITLE4=Hard Rock Blues
TTITLE5=You Don´t Know
TTITLE6=Silent Night Blues
TTITLE7=Missisippi Man Blues
TTITLE8=I´m The Loneliest Man In Town
TTITLE9=Memphis Blues
TTITLE10=I´m Gonna Teach Your Boogie Woogie
TTITLE11=Memphis 1954
TTITLE12=Chicago Slide Fight
TTITLE13=Big Joe
TTITLE14=Ducking And Diving
TTITLE15=Bodo´s Rockin´
TTITLE16=Too Black Bad
TTITLE17=Big City Blues
TTITLE18=Hungaria Avenue Jive
TTITLE19=Blues Buddies
TTITLE20=Trumpet Jump It
TTITLE21=Delta Serenade
TTITLE22=Cook´s Jubilee Blues
TTITLE23=Have You Ever Been To Memphis
EXTD=
EXTT0=
EXTT1=
EXTT2=
EXTT3=
EXTT4=
EXTT5=
EXTT6=
EXTT7=
EXTT8=
EXTT9=
EXTT10=
EXTT11=
EXTT12=
EXTT13=
EXTT14=
EXTT15=
EXTT16=
EXTT17=
EXTT18=
EXTT19=
EXTT20=
EXTT21=
EXTT22=
EXTT23=
PLAYORDER=
